<svg xmlns="http://www.w3.org/2000/svg" width="401" height="105" fill="none" viewBox="0 0 401 105"><g clip-path="url(#clip0_37_6)"><path fill="#000" d="M1.213.467c0 1.158.389 3.138.939 4.755.97 2.857 2.596 5.424 4.966 7.846 5.792 5.906 14.99 9.431 27.867 10.678 1.4.13 4.255.314 4.99.314.575 0 .826.049 1.4.25 2.944 1.03 5.962 3.154 7.935 5.584l.59.724-.38.08c-.339.073-.444.057-.978-.144-2.718-1.046-6.746-1.384-9.731-.82-.526.096-.55.096-1.092-.138-1.69-.708-4.724-1.633-7.345-2.237-.671-.16-2.257-.442-3.56-.643-3.283-.507-7.651-.54-10.879-.08-5.8.82-10.952 3.218-15.199 7.072l-.76.692.68.628c3.712 3.452 8.33 5.617 13.16 6.172 1.124.129 3.94.105 5.015-.032 6.277-.845 12.32-4.048 18.508-9.833l1.06-.99.76-.137c1.035-.177 3.785-.241 4.95-.113 1.124.121 2.524.403 3.567.733l.793.241-.712.467c-2.467 1.585-5.791 5.286-7.983 8.883-1.068 1.739-1.335 2.439-2.25 5.73-.654 2.382-.509 2.124-1.512 2.663-.607.338-1.027.628-1.416 1.006-.493.483-.59.547-1.035.628-.606.12-2.111.628-2.855.965-.696.314-1.933 1.038-2.678 1.562-5.557 3.918-9.634 11.354-10.92 19.892-.34 2.285-.404 3.186-.396 5.793.008 3.758.38 6.526 1.294 9.648 3.041 10.325 10.427 16.086 18.435 14.38 4.554-.973 9.01-4.554 12.125-9.745.558-.925 1.634-2.985 1.828-3.5l.081-.217.477.442c2.977 2.736 6.39 4.402 10.2 4.965.882.129 3.212.113 4.166-.032 6.739-1.014 11.916-6.115 13.914-13.688.202-.764.42-1.923.574-3.017.194-1.4.194-4.611 0-6.116-.752-5.85-3.171-11.064-6.916-14.903-1.715-1.762-3.462-3.09-5.428-4.12-4.093-2.132-8.59-2.543-12.619-1.158-.906.305-.962.313-2.143.337-.842.009-1.278-.015-1.424-.088-.59-.274-1.432-2.253-1.966-4.61-.145-.628-.34-2.841-.412-4.628-.113-2.776.226-3.983 2.054-7.306 1.036-1.875 1.141-2.286.801-3.17-.121-.347-.299-.596-.655-.942a11 11 0 0 1-.947-1.086c-2.014-2.704-5.144-5.038-8.29-6.197-.453-.169-.51-.217-.801-.716-1.246-2.132-3.39-4.933-5.63-7.379-5.905-6.421-13.371-11.201-21.404-13.68C10.256.974 6.334.282 2.086.04l-.873-.048Zm46.585 35.438c-.55 3.227-.583 7.717-.081 10.686.08.491.696 2.253 1.448 4.185.267.684.542 1.416.615 1.625l.12.378-.436.902c-.234.499-.461 1.038-.485 1.19-.04.202-.203.451-.566.83l-.51.547-.372-.467c-.623-.748-1.982-2.092-2.678-2.631-1.003-.773-1.617-1.16-2.693-1.698-.922-.459-1.011-.531-1.383-1.014-.486-.636-1.117-1.2-1.683-1.489-.235-.12-.47-.314-.526-.418-.348-.644.194-2.945 1.181-5.038.372-.788 1.57-2.711 2.532-4.087.963-1.36 1.61-2.052 2.451-2.632.704-.474 2.936-1.682 3.114-1.69.057 0 .04.29-.048.821"/></g><path fill="#000" d="m89.818 91.547-.01-1.92q1.633-.056 2.591-.3 1.007-.246 1.532-.824.574-.579.76-1.636t.178-2.737l-.11-22.176q-.008-1.68-.158-2.687-.15-1.055-.632-1.629-.435-.621-1.252-.81-.77-.236-2.065-.325l-.01-1.92 15.408-.077q7.248-.036 11.147 2.296 3.948 2.285 3.969 6.605.029 5.712-8.167 8.105l.001.192q2.64-.014 4.755.744 2.164.71 3.659 2.046a9.4 9.4 0 0 1 2.319 3.156q.826 1.82.836 3.98.012 2.448-1.178 4.278-1.143 1.83-3.345 3.089-4.26 2.42-11.748 2.458Zm18.802-3.021q7.727-.039 7.693-6.999-.021-4.272-2.815-6.226-1.446-1-3.751-1.421-2.259-.42-5.571-.404l-2.304.011.048 9.6q.015 2.977 1.557 4.216t5.143 1.223m-3.93-17.933q2.16-.011 3.742-.403 1.582-.44 2.682-1.213 2.297-1.596 2.279-4.956-.017-3.504-1.753-5.03-1.736-1.576-5.576-1.557l-3.408.017q-.864.004-.859.82l.061 12.336Zm33.376 12.842q.01 1.92.159 3.07.15 1.152.585 1.774t1.253.858q.817.187 2.209.229l.009 1.92-15.119.075-.01-1.92q1.344-.054 2.158-.299.863-.292 1.292-.87.477-.627.616-1.683.186-1.105.178-2.785l-.099-19.824a87 87 0 0 0-.119-4.56q-.105-1.823-.252-2.494-.246-1.199-1.112-1.579-.818-.38-3.026-.368l-.008-1.632 11.127-1.88Zm21.689-5.917q-4.023 1.845-6.079 3.439-2.007 1.546-1.999 3.226.006 1.392.779 2.204.772.812 1.924.806a6 6 0 0 0 2.158-.395 5.9 5.9 0 0 0 1.722-1.113q.717-.675 1.096-1.588a4.85 4.85 0 0 0 .422-2.018Zm-.012-2.543-.01-2.016q-.014-2.784-1.028-4.027-.967-1.291-3.031-1.281-1.392.007-2.108.778-.717.724-1.332 2.455-.426 1.201-1.238 1.878-.765.675-2.157.683-1.344.007-2.068-.806-.725-.812-.732-2.3-.01-2.304 2.478-3.66 2.538-1.358 7.625-1.383 5.377-.026 7.69 1.93 2.313 1.908 2.336 6.468l.053 10.512q.02 4.08 1.652 4.072.912-.005 1.677-.632l.727 1.388q-.666 1.204-2.102 1.93-1.389.68-3.165.688-2.208.011-3.367-1.327t-1.171-3.786l-.24.001q-1.379 2.503-3.581 3.81-2.2 1.307-5.033 1.321-3.024.015-4.856-1.656-1.833-1.718-1.847-4.454-.01-2.113 1.853-3.946 1.862-1.88 6.221-3.679Zm36.455 12.058q-1.814 2.025-4.545 3.142-2.682 1.118-5.85 1.134-2.928.014-5.332-.886-2.406-.948-4.142-2.62-1.736-1.67-2.708-4.018-.923-2.395-.938-5.275-.015-2.976.981-5.429t2.811-4.19q1.816-1.785 4.354-2.758 2.54-.972 5.612-.988 2.16-.01 3.986.412 1.874.423 3.174 1.185 1.347.76 2.121 1.813.773 1.004.779 2.204.006 1.392-.805 2.212-.764.82-2.108.827-1.104.005-1.971-.567-.819-.57-1.641-1.863-.726-1.149-1.257-1.818-.484-.67-.917-1.004-.435-.382-.867-.475-.433-.142-1.057-.139-2.784.014-4.307 2.614t-1.499 7.255q.024 4.992 1.862 7.67 1.885 2.68 5.341 2.662a11.4 11.4 0 0 0 3.933-.74 14.8 14.8 0 0 0 3.733-2.179Zm18.944 1.97q1.536-.008 2.159-.107.624-.148.621-.531 0-.288-.678-1.39a32 32 0 0 0-1.646-2.632l-3.675-5.453-2.388 2.316.009 1.872q.009 1.872.159 3.023t.489 1.822q.387.622 1.012.859.674.237 1.682.232l.009 1.92-14.16.07-.009-1.92q1.344-.054 2.158-.299.816-.243 1.292-.822.477-.627.616-1.683.186-1.105.178-2.833l-.102-20.352q-.014-2.928-.119-4.607-.104-1.68-.54-2.493-.389-.862-1.253-1.05-.817-.189-2.257-.181l-.009-1.776 10.695-1.877.133 26.687 4.586-4.39q2.484-2.365 3.534-3.522 1.05-1.206 1.048-1.734-.003-.432-.915-.571-.865-.188-3.265-.176l-.01-1.92 13.104-.065.01 1.92q-1.824.01-3.213.64t-3.013 2.175l-4.634 4.391 8.362 11.719q1.112 1.53 2.171 2.1 1.058.572 2.786.563l.01 1.92-14.928.074Zm49.216-35.767q4.32-.02 8.071 1.448 3.752 1.47 6.5 4.048a18.9 18.9 0 0 1 4.399 6.074q1.601 3.495 1.621 7.576.02 3.888-1.595 7.304a18.6 18.6 0 0 1-4.338 5.974q-2.724 2.51-6.46 4.016-3.738 1.458-8.009 1.48t-8.023-1.4q-3.752-1.47-6.548-3.951a18.6 18.6 0 0 1-4.398-5.93q-1.6-3.401-1.62-7.288-.02-4.08 1.546-7.592a19.2 19.2 0 0 1 4.29-6.117q2.77-2.607 6.507-4.113t8.057-1.529m.173 34.8q2.784-.015 5.035-1.081a11.2 11.2 0 0 0 3.825-3.091q1.574-2.025 2.375-4.86.85-2.884.832-6.436-.018-3.744-.897-6.716-.831-3.02-2.426-5.124-1.594-2.152-3.856-3.245-2.262-1.14-5.046-1.127-2.832.014-5.082 1.178-2.202 1.114-3.776 3.283-1.573 2.12-2.422 5.148-.801 2.98-.782 6.724.017 3.551.848 6.428.877 2.828 2.472 4.835a11.3 11.3 0 0 0 3.807 3.053q2.261 1.045 5.093 1.031m33.939-5.401q.01 1.92.16 3.071t.585 1.773 1.252.858q.817.187 2.209.229l.01 1.92-15.12.075-.01-1.92q1.344-.054 2.159-.299.862-.291 1.291-.87.477-.626.616-1.683.187-1.105.178-2.785l-.099-19.824a89 89 0 0 0-.118-4.56q-.106-1.822-.253-2.494-.246-1.2-1.112-1.578-.818-.38-3.026-.37l-.008-1.631 11.127-1.88Zm17.543-.088q.009 1.92.159 3.072.15 1.15.585 1.773.435.621 1.252.857.817.189 2.209.23l.01 1.92-15.12.075-.01-1.92q1.344-.055 2.159-.299.863-.292 1.292-.87.477-.627.615-1.684.187-1.104.178-2.784l-.029-5.904a87 87 0 0 0-.119-4.56q-.105-1.823-.252-2.495-.246-1.199-1.112-1.578-.818-.38-3.026-.369l-.008-1.632 11.127-1.88Zm-7.197-28.188q-.008-1.584 1.043-2.645 1.098-1.11 2.634-1.118 1.584-.007 2.646 1.091 1.109 1.05 1.117 2.635.007 1.536-1.091 2.645-1.05 1.062-2.635 1.07a3.69 3.69 0 0 1-2.645-1.043 3.69 3.69 0 0 1-1.069-2.635m16.527 16.766q-.535-1.39-1.019-2.203-.484-.862-1.015-1.291a2.25 2.25 0 0 0-1.107-.618q-.576-.142-1.392-.138l-.01-1.92 14.352-.071.009 1.92q-1.2.006-1.919.105-.671.1-1.055.293a.88.88 0 0 0-.429.53 2.1 2.1 0 0 0-.093.672q.003.626.248 1.44.243.815.584 1.629l4.622 12.553h.192l5.074-12.554q.332-.817.521-1.443.188-.674.186-1.2-.005-1.057-.728-1.533t-2.547-.516l-.009-1.92 10.608-.052.009 1.92q-1.296.006-2.252.683-.909.676-1.906 2.985l-8.874 20.397-4.368.021Zm50.067 14.534q-4.344 4.966-10.871 4.998-2.976.015-5.429-.885-2.404-.948-4.141-2.619a12.2 12.2 0 0 1-2.708-4.067q-.972-2.346-.986-5.227-.015-2.976.981-5.429.995-2.5 2.81-4.286a13.4 13.4 0 0 1 4.354-2.854q2.54-1.02 5.563-1.035 5.088-.025 7.933 2.696 2.846 2.722 2.871 7.666.003.768-.235.961-.24.145-1.344.151l-15.456.077q-.189.433-.184 1.585.024 4.704 2.053 7.43 2.078 2.726 5.582 2.708 2.016-.01 3.979-.932 2.012-.921 3.875-2.611Zm-9.375-12.577q1.92-.01 2.447-.204.574-.243.571-1.06-.01-2.11-1.218-3.45-1.206-1.337-3.03-1.328-2.064.01-3.688 1.746-1.575 1.688-2.042 4.33Zm15.635 17.01-1.488.007-.043-8.736 2.016-.01q.832 3.453 2.377 5.029t3.991 1.564q1.776-.009 2.733-.734 1.004-.773.998-2.069-.007-1.344-1.213-2.586-1.207-1.29-3.902-2.716-3.658-1.95-5.251-3.862-1.594-1.96-1.606-4.408-.008-1.584.561-2.931a8 8 0 0 1 1.62-2.408 7.1 7.1 0 0 1 2.488-1.548q1.438-.585 3.118-.592 1.488-.007 2.93.417 1.49.425 2.598 1.187l.858-1.156 1.248-.006.036 7.248-1.872.009q-1.118-2.73-2.324-3.925-1.158-1.194-2.838-1.185-1.343.007-2.156.73-.764.724-.758 1.924.006 1.344 1.164 2.538 1.206 1.195 3.949 2.62 1.925 1.046 3.323 2.048 1.396 1.002 2.266 2.053.869 1.003 1.259 2.154.436 1.101.444 2.397.008 1.68-.609 3.028a6.6 6.6 0 0 1-1.765 2.313q-1.147.965-2.776 1.501-1.581.537-3.55.546-2.063.01-3.842-.509-1.78-.567-2.936-1.617Z"/><defs><clipPath id="clip0_37_6"><path fill="#fff" d="M0 0h80v103H0Z"/></clipPath></defs></svg>