<svg xmlns="http://www.w3.org/2000/svg" width="256" height="429" fill="none" viewBox="0 0 256 429"><g clip-path="url(#clip0_6_121)"><path fill="#101706" d="M39.862 99.102c0 2.688.898 7.282 2.17 11.035 2.245 6.628 6.004 12.585 11.485 18.205 13.393 13.705 34.662 21.883 64.442 24.777 3.236.299 9.839.729 11.541.729 1.328 0 1.908.112 3.236.578 6.809 2.39 13.786 7.32 18.35 12.959l1.366 1.68-.879.187c-.786.168-1.029.131-2.264-.336-6.285-2.428-15.6-3.212-22.503-1.905-1.216.224-1.272.224-2.525-.317-3.909-1.643-10.924-3.791-16.985-5.191-1.552-.373-5.219-1.027-8.23-1.494-7.595-1.176-17.696-1.251-25.16-.186-13.412 1.904-25.327 7.468-35.148 16.412L37 177.841l1.571 1.456c8.586 8.011 19.267 13.033 30.435 14.322 2.6.298 9.11.242 11.597-.075 14.516-1.961 28.489-9.392 42.799-22.817l2.45-2.297 1.759-.317c2.394-.411 8.754-.56 11.448-.261 2.6.28 5.836.933 8.249 1.699l1.833.56-1.646 1.083c-5.705 3.678-13.393 12.267-18.463 20.614-2.469 4.033-3.086 5.657-5.2 13.294-1.515 5.527-1.178 4.929-3.498 6.18-1.403.785-2.375 1.457-3.273 2.334-1.141 1.121-1.366 1.27-2.395 1.457-1.403.28-4.882 1.456-6.603 2.24-1.608.729-4.47 2.409-6.191 3.623-12.851 9.093-22.279 26.346-25.253 46.157-.786 5.302-.936 7.394-.917 13.443.019 8.72.88 15.143 2.993 22.388 7.034 23.956 24.112 37.325 42.631 33.367 10.531-2.26 20.838-10.569 28.04-22.612 1.29-2.147 3.778-6.927 4.227-8.122l.187-.505 1.104 1.027c6.883 6.349 14.777 10.214 23.588 11.521 2.039.299 7.426.261 9.633-.075 15.582-2.352 27.554-14.19 32.174-31.761.468-1.773.973-4.462 1.328-7.002.449-3.248.449-10.699 0-14.19-1.739-13.575-7.332-25.674-15.993-34.58-3.966-4.09-8.006-7.17-12.552-9.56-9.465-4.949-19.865-5.901-29.181-2.689-2.095.709-2.226.728-4.957.784-1.945.019-2.955-.037-3.292-.205-1.366-.635-3.311-5.229-4.546-10.699-.336-1.457-.785-6.592-.954-10.737-.261-6.442.524-9.242 4.752-16.954 2.394-4.35 2.637-5.303 1.852-7.356-.281-.803-.693-1.382-1.516-2.185-.617-.598-1.608-1.737-2.188-2.521-4.658-6.274-11.897-11.688-19.174-14.377-1.047-.392-1.178-.504-1.851-1.662-2.881-4.948-7.838-11.446-13.02-17.122-13.655-14.9-30.92-25.991-49.495-31.742-8.717-2.689-17.79-4.295-27.61-4.855L39.862 98Zm107.726 82.231c-1.272 7.487-1.346 17.906-.187 24.796.187 1.139 1.609 5.228 3.349 9.709a161 161 0 0 1 1.421 3.772l.281.878-1.01 2.091c-.543 1.157-1.066 2.408-1.122 2.763-.094.467-.468 1.046-1.31 1.923l-1.178 1.27-.861-1.083c-1.44-1.736-4.583-4.855-6.191-6.106-2.32-1.792-3.742-2.688-6.229-3.939-2.133-1.065-2.339-1.233-3.199-2.353-1.122-1.475-2.582-2.782-3.891-3.454-.542-.28-1.085-.728-1.216-.971-.804-1.494.449-6.834 2.731-11.689.861-1.83 3.629-6.292 5.855-9.485 2.226-3.156 3.723-4.761 5.668-6.106 1.627-1.101 6.79-3.902 7.202-3.921.131 0 .093.672-.113 1.905"/><path fill="#101706" d="M22.584 71v-2.584q2.652-.067 4.216-.408 1.632-.34 2.448-1.156.885-.816 1.156-2.312.34-1.496.34-3.876V28.976q0-2.38-.272-3.808-.204-1.496-.952-2.312-.68-.885-2.04-1.156-1.36-.34-3.536-.476V18.64h20.332q9.18 0 14.28 3.264t5.1 9.18q0 4.488-2.856 7.344-2.788 2.856-8.908 4.692v.272q2.108.204 3.672.476t2.788.68a11 11 0 0 1 2.244.884q1.088.544 2.108 1.224 6.052 4.284 6.052 10.744 0 3.604-2.04 6.732-1.972 3.06-5.576 4.828-1.156.612-2.38 1.02-1.224.34-2.856.612-1.632.204-3.808.34-2.108.068-5.032.068Zm24.684-2.924q12.308 0 12.308-10.54 0-7.684-6.324-10.744a25 25 0 0 0-2.108-.816q-1.02-.34-2.38-.476-1.36-.204-3.264-.272a127 127 0 0 0-4.556-.068h-3.06v15.164q0 4.148 2.176 5.984 2.175 1.768 7.208 1.768M41.692 41.76q2.108 0 3.536-.068a30 30 0 0 0 2.448-.204q1.02-.204 1.768-.476a9.6 9.6 0 0 0 1.632-.884q2.175-1.36 3.06-3.264.952-1.905.952-4.964 0-5.372-2.652-7.684-2.584-2.38-8.16-2.38H39.04q-1.156 0-1.156 1.156V41.76Zm51.449 18.632q0 2.584.204 4.148t.816 2.448q.68.884 1.836 1.224 1.224.34 3.196.408V71H80.425v-2.38q2.04-.067 3.264-.408 1.224-.408 1.904-1.224.748-.816.952-2.244.272-1.496.272-3.876V31.56q0-3.672-.136-6.12-.068-2.515-.272-3.4-.34-1.564-1.632-2.108-1.224-.544-4.488-.544v-2.312L93.14 14.56Zm38.433-9.52q-3.876 1.496-6.596 2.924-2.652 1.428-4.284 2.856t-2.38 2.856a6.7 6.7 0 0 0-.68 2.924q0 2.244 1.496 3.672t3.944 1.428a6.3 6.3 0 0 0 3.264-.884 9 9 0 0 0 2.72-2.38q1.156-1.564 1.836-3.604.68-2.108.68-4.42Zm0-2.924V45.16q0-8.296-7.072-8.296-1.156 0-1.972.204t-1.36.68q-.543.475-1.02 1.36a19 19 0 0 0-.816 2.176q-.747 1.972-1.496 2.652-.68.612-2.04.612-3.4 0-3.4-3.4 0-3.264 3.468-5.032 3.468-1.836 9.86-1.836 6.8 0 9.656 2.448 2.856 2.38 2.856 8.16V60.12q0 7.752 3.06 7.752.952 0 1.836-.204.885-.272 1.496-1.292l.952 1.632q-.816 1.565-2.992 2.652-2.175 1.02-4.556 1.02-2.991 0-4.488-1.904-1.428-1.904-1.428-5.372h-.34q-1.767 3.332-4.896 5.304-3.127 1.904-6.936 1.904-4.284 0-6.732-2.176-2.448-2.175-2.448-5.848 0-1.632.544-3.128.612-1.496 1.904-2.856t3.4-2.652q2.109-1.36 5.168-2.72Zm55.129 17.408q-2.448 2.993-6.324 4.692-3.876 1.632-8.364 1.632-3.604 0-6.664-1.292a15.75 15.75 0 0 1-5.168-3.74q-2.176-2.448-3.4-5.848-1.156-3.4-1.156-7.548 0-4.352 1.36-7.82 1.36-3.536 3.808-5.984 2.516-2.516 5.984-3.808 3.536-1.36 7.752-1.36 2.652 0 4.828.476 2.175.408 3.74 1.224 1.631.748 2.516 1.904.884 1.088.884 2.38 0 1.36-.884 2.108-.885.748-2.448.748-1.224 0-2.04-.476-.816-.544-2.108-2.312-1.36-1.564-2.652-2.176-1.225-.68-3.196-.68-4.829 0-7.344 3.74-2.448 3.74-2.448 11.016 0 7.82 2.72 11.9 2.788 4.012 8.092 4.012 2.855 0 5.372-1.088 2.515-1.156 5.1-3.672Zm32.513 3.264q2.244 0 3.06-.204.884-.204.884-.544-.068-.544-1.088-1.972t-2.652-3.4l-7.208-8.704-2.516 2.38v4.012q0 2.652.204 4.284.272 1.564.884 2.516.68.884 1.904 1.224 1.292.34 3.332.408V71h-19.312v-2.38q2.04-.067 3.264-.408 1.291-.34 1.972-1.224.747-.885 1.02-2.38.272-1.496.272-3.944V32.172q0-5.168-.136-7.82-.068-2.653-.68-3.604t-2.04-1.088q-1.429-.204-3.808-.204v-2.312l13.124-2.584v37.332l6.324-6.188q3.06-3.06 4.556-4.488 1.496-1.495 1.496-2.244t-1.428-1.156q-1.428-.476-4.08-.476v-2.38h17.68v2.38q-1.293 0-2.244.136a6.6 6.6 0 0 0-1.836.544q-.816.408-1.768 1.156a27 27 0 0 0-2.176 1.768l-9.792 8.704 13.464 15.232q.951 1.155 1.7 1.904a10 10 0 0 0 1.564 1.088q.815.408 1.7.612.951.135 2.244.136V71h-17.884Z"/><path fill="#101706" d="M50.164 357.96q5.985 0 11.152 2.108t8.976 5.78q3.808 3.672 5.984 8.636 2.175 4.964 2.176 10.744 0 5.508-2.244 10.336a26.5 26.5 0 0 1-5.984 8.432q-3.808 3.536-8.976 5.644-5.168 2.04-11.084 2.04t-11.084-2.04q-5.167-2.108-8.976-5.644a27.4 27.4 0 0 1-6.052-8.432q-2.176-4.828-2.176-10.336 0-5.78 2.176-10.744 2.175-4.964 5.984-8.636 3.808-3.672 8.976-5.78t11.152-2.108m0 49.98q4.488 0 8.024-1.564 3.604-1.565 6.12-4.488 2.584-2.924 3.944-7.072 1.36-4.217 1.36-9.384 0-5.44-1.36-9.792-1.36-4.42-3.876-7.48-2.515-3.128-6.12-4.76-3.604-1.7-8.092-1.7t-8.092 1.7q-3.605 1.632-6.12 4.76-2.516 3.06-3.876 7.48-1.36 4.351-1.36 9.792 0 5.167 1.36 9.384 1.36 4.148 3.876 7.072 2.516 2.923 6.12 4.488 3.604 1.564 8.092 1.564m45.599-7.548q0 2.584.204 4.148.204 1.565.816 2.448.68.883 1.836 1.224 1.224.34 3.196.408V411H83.047v-2.38q2.04-.067 3.264-.408 1.224-.408 1.904-1.224.748-.816.952-2.244.272-1.495.272-3.876V371.56q0-3.672-.136-6.12-.069-2.516-.272-3.4-.34-1.564-1.632-2.108-1.224-.544-4.488-.544v-2.312l12.852-2.516Zm23.405-.204q0 2.652.204 4.284.272 1.564.952 2.516.68.883 1.904 1.224t3.264.408V411h-19.516v-2.38q2.04-.067 3.332-.408 1.292-.408 1.972-1.224.748-.884.952-2.38.272-1.564.272-3.944v-8.704q0-3.944-.136-6.46-.068-2.584-.34-3.536-.34-1.564-1.564-2.108-1.224-.612-4.624-.612v-2.38l13.328-2.584Zm-7.82-39.712q0-1.768 1.224-2.992t2.992-1.224 2.992 1.224 1.224 2.992-1.224 2.992-2.992 1.224-2.992-1.224-1.224-2.992m22.232 22.916q-.816-2.04-1.496-3.196-.612-1.224-1.36-1.836a3.4 3.4 0 0 0-1.7-.748q-.885-.204-2.176-.272v-2.38h18.02v2.38q-1.36.068-2.244.136t-1.428.34a1.25 1.25 0 0 0-.68.68q-.204.408-.204 1.224 0 1.156.272 2.176l.68 2.04 7.208 19.72h.272l6.188-14.62q1.428-3.4 2.04-5.44t.612-3.604-.816-2.108-3.536-.544v-2.38h13.532v2.38q-1.089 0-1.972.544a6.4 6.4 0 0 0-1.564 1.36q-.544.749-1.156 2.04a682 682 0 0 1-1.156 2.584 65 65 0 0 0-1.02 2.72 22 22 0 0 1-.884 2.108l-9.996 23.052h-3.944Zm68.4 21.284q-5.78 7.004-14.348 7.004-4.012 0-7.276-1.292-3.264-1.36-5.644-3.74-2.311-2.448-3.604-5.78-1.292-3.4-1.292-7.48 0-4.148 1.36-7.684t3.808-6.052q2.517-2.516 5.916-3.944 3.468-1.428 7.548-1.428 6.597 0 10.2 3.604 3.604 3.536 3.604 10.2 0 .952-.408 1.156-.34.204-1.7.204h-22.372q-.135.544-.204 1.36a19 19 0 0 0-.068 1.7q0 3.536.816 6.46.885 2.856 2.448 4.896 1.632 2.04 3.808 3.196 2.244 1.088 4.964 1.088 2.856 0 5.304-1.224 2.448-1.292 5.032-4.148Zm-11.22-18.36q1.36 0 2.176-.068t1.224-.272.544-.544q.136-.408.136-1.02 0-3.128-2.04-4.964-1.971-1.904-5.44-1.904-7.344 0-9.112 8.772ZM211.313 411h-1.496v-11.696h1.7q2.652 9.588 9.656 9.588 2.72 0 4.284-1.292 1.632-1.36 1.632-4.08 0-1.02-.34-1.7-.272-.748-1.156-1.496-.816-.816-2.38-1.836-1.496-1.02-4.012-2.584a69 69 0 0 1-4.012-2.652q-1.7-1.224-2.856-2.448-1.156-1.292-1.768-2.72-.544-1.428-.544-3.332 0-2.312.748-4.216.816-1.972 2.176-3.332a9.6 9.6 0 0 1 3.196-2.108q1.836-.816 4.012-.816 1.836 0 3.808.612 1.972.544 3.468 1.496l1.36-1.428h1.292v9.792h-1.768q-1.496-4.147-3.264-5.916-1.768-1.768-4.352-1.768-2.312 0-3.74 1.224-1.36 1.224-1.36 3.4 0 1.157.34 2.04.408.816 1.224 1.632t2.04 1.7q1.291.816 3.06 1.904a121 121 0 0 1 4.964 3.264q2.108 1.428 3.4 2.856 1.292 1.36 1.904 2.856t.612 3.4q0 4.828-3.128 7.616-3.128 2.72-8.228 2.72-5.304 0-9.112-3.06Z"/><path stroke="#101706" stroke-linecap="round" stroke-width="5" d="M250.5 424.019V4.999"/><path stroke="#101706" stroke-linecap="round" stroke-width="5" d="M5.5 5v419"/></g><defs><clipPath id="clip0_6_121"><path fill="#fff" d="M0 0h256v429H0Z"/></clipPath></defs></svg>