<svg xmlns="http://www.w3.org/2000/svg" width="1920" height="1200" fill="none" viewBox="0 0 1920 1200"><g clip-path="url(#clip0_1_13)"><path fill="#000" fill-opacity=".12" d="M-333.756 281.661c16.101-1.97 41.327-4.302 56.017-5.317 14.684-.817 38.311-2.596 52.61-3.818 14.101-1.228 42.287-3.09 62.532-4.36 42.272-2.496 89.793-8.819 111.347-14.809 8.184-2.367 35.576-11.972 60.982-21.429l46.009-17.054 34.307-24.479c18.767-13.387 42.002-31.017 51.525-39.291 18.635-15.965 26.067-19.935 37.355-19.65 14.061.356 234.511 67.314 248.179 75.382 2.143 1.44-.298 3.953-12 12.172-12.711 8.985-19.926 12.169-47.292 20.784-24.772 7.889-45.603 16.669-89.133 37.549-50.144 23.88-115.397 57.478-139.339 71.724-19.515 11.586-76.69 54.892-104.254 79.146-47.421 41.573-71.693 68.88-99.138 111.948-13.205 20.656-42.797 78.125-41.689 81.321.376.802 12.216-5.038 26.68-12.791 14.27-7.956 52.799-26.981 85.291-42.398 32.493-15.416 71.809-34.223 87.253-41.556 15.449-7.53 38.31-18.239 50.739-23.865 25.253-11.243 69.507-37.253 89.908-52.578l13.133-9.965 2.821 6.012c4.715 9.426 24.054 28.33 37.707 36.992 26.147 16.106 63.584 24.577 96.355 21.643 9.729-.744 19.275-2.087 20.874-2.64 1.798-.549 3.189-.712 3.174-.118-.035 1.385-53.068 29.747-55.048 29.697-6.337-.16-113.74 78.114-148.989 108.51C101.043 727.498 51.293 790.596.87 896.053c-8.59 18.397-15.52 33.865-15.342 34.661.376.802 18.637-8.241 40.742-20.356 22.104-12.114 72.868-36.969 112.768-55.366s81.023-38.15 91.471-43.826c22.506-12.302 58.806-29.404 102.889-48.686 58.107-25.263 123.129-65.401 157.824-97.395 12.781-11.756 45.01-40.248 71.355-63.344 26.538-22.893 50.69-45.451 53.974-49.922 16.834-23.138 72.343-110.249 84.394-132.32l7.693-14.261 1.011 14.877c1.124 18.246 8.693 40.219 19.942 57.731 8.775 13.489 26.905 33.155 37.999 41.158 6.42 4.717 8.325 7.735 4.76 7.645-4.555-.115-27.516 14.552-39.471 24.942-16.218 14.442-26.698 29.226-33.495 47.272-4.464 11.966-5.173 16.503-4.822 33.937.119 18.815.658 21.007 7.982 37.033 14.473 31.059 46.529 56.423 86.055 68.511 19.669 5.844 68.792 6.69 90.127 1.487 44.27-10.96 78.354-34.455 96.21-66.676 8.926-16.012 11.949-25.837 12.918-40.663l.677-11.072 12.109-.882c24.22-1.566 219.81-9.493 221.57-8.854.99.42-6.5 6.37-16.98 13.233-18.34 12.21-19.73 12.571-69.63 26.557-41.11 11.436-57.7 17.155-86.96 30.078-19.84 8.806-51.501 22.659-70.139 30.9-18.836 8.237-37.667 16.275-42.063 17.749-4.392 1.275-29.67 13.507-56.161 26.698-26.497 13.39-59.405 29.587-73.24 35.97-28.477 13.34-31.7 15.436-97.218 59.522-56.853 38.364-108.027 79.447-157.361 126.12-46.283 43.579-76.132 79.859-111.209 134.809-14.24 22.41-56.691 102.53-54.315 102.59.396.01 7.22-3.38 15.454-7.73 42.971-22.28 105.331-51.2 156.193-72.09 31.437-12.87 76.526-32.72 100.393-44 23.867-11.27 65.544-29.43 92.767-40.23 77.878-31.29 155.857-74.471 187.115-103.779 5.482-5.208 32.412-27.893 59.722-49.975 27.312-22.279 55.242-45.138 62.322-51.097 10.32-8.452 20.17-21.47 53.47-68.945 42.57-61.299 49.78-72.404 69.08-106.767 6.44-11.52 15.51-25.35 20-30.781 8.18-9.892 23.11-20.406 31.48-22.175 5.18-1.255 30.29 16.608 94.02 66.733l37.9 29.67-11.95 2.075c-45.39 8.357-73.81 35.163-80.81 76.966-4.65 27.209 4.82 60.319 25.69 89.163 5.35 7.66 9.16 13.697 8.37 13.677s-8.09-1.591-16.16-3.577c-21.66-5.3-63.27-5.758-86.36-1.391-112.92 22.096-166.76 121.323-109.14 201.593 4.21 6.05 7.84 11.49 7.82 12.08-.01.59-11.99 4.05-26.55 7.84-103.524 26.69-159.871 45.07-246.186 80.91-48.263 19.97-63.905 27.29-96.279 45.88-69.156 39.04-137.073 91.78-199.501 154.76-21.547 21.43-24.009 24.74-18.835 23.88 5.179-1.06 63.84-9.08 93.265-12.89 39.169-5.15 66.182-7.64 127.12-11.64 5.357-.26 25.008-1.55 43.668-2.86 39.896-2.55 80.025-6.49 91.774-8.76 18.716-3.49 66.573-7.43 127.684-10.44 55.75-2.55 79.01-5.53 145.13-18.51 54.16-10.51 75.52-16.31 103.57-28.47 14.02-5.98 59.45-23.65 101.26-39.22 41.81-15.58 81.03-30.63 87.25-33.64 21.26-9.96 149.31-105.73 186.84-139.83 38.53-35.06 57.26-46.67 78.71-48.7l9.73-.74 20.15 25.85c46.82 60.79 85.45 116.02 125.85 179.81 8.76 13.89 16.82 24.59 18.02 24.02 1.4-.55 8.6-3.14 16.4-5.92 10.8-4.08 17.05-8.08 27.6-17.91 7.71-6.94 13.81-13.12 13.83-13.91.05-1.98-29.93-46.7-55.19-82.39-27.93-39.51-63.22-85.95-93.03-121.95-12.88-15.57-25.76-31.15-28.64-34.78l-5.38-6.67 14.5-32.904c8.18-18.011 25.23-57.184 38.26-86.755 59.09-134.544 57.84-132.199 62.98-131.673 2.57.263 11.46 1.279 19.75 2.281 39.13 4.553 86.79-15.232 121.57-50.589 29.49-29.75 50.94-71.187 58.73-112.772 4.11-21.48 3.15-61.702-1.74-79.845-13.06-48.052-42.56-80.481-84.27-92.228-72.01-20.434-154.81 33.116-189.16 121.949-20.36 52.95-18.28 111.814 5.22 153.992 8.73 15.468 27.26 34.946 40.73 43.009l11.13 6.618-6.9 14.281c-3.97 7.82-29.49 61.234-56.71 118.763-27.41 57.524-50.21 104.868-50.62 105.254-.2.391-2.35-.852-4.48-2.886-6-5.696-4.52-32.787 3.54-69.612 8.48-37.607 8.73-39.383 11.68-62.279 1.26-10.463 3.47-27.436 4.91-37.499 3.44-26.249 6.99-56.654 11.37-96.939 3.64-33.967 3.69-36.144.29-58.408-3.54-24.644-8.17-53.077-13.54-83.708-6.25-35.009-13.52-84.301-15.25-102.364-2.23-21.442-5.06-34.979-13.48-62.32-20.69-67.255-39.68-115.656-66.67-169.208-29.25-57.967-48.61-99.446-55.47-118.035s-21.71-50.45-62.56-135.64c-29.56-61.34-59.72-130.616-78.29-179.798-3.54-9-6.92-16.412-7.71-16.432s-1.83 1.934-2.49 4.293c-.46 2.563-5.08 20.861-10.15 40.931-21.35 84.212-29.47 139.056-31.36 213.66-1.48 58.576 3.67 113.557 19.63 211.385 7.73 47.125 8.62 51.108 24.32 111.901l12.98 50.822-16.44 15.426c-13.81 13.116-18.1 18.552-26.03 33.995-14.39 28.547-17.27 40.553-18.01 77.762-.7 27.704-.07 34.057 4.05 51.191 14.53 60.366 53.45 112.241 102.75 137.447 21.51 11.039 39.65 14.864 66.42 14.154l22.2-.429 19.15 42.266c10.5 23.434 22.37 47.892 26.36 54.527 5.9 9.654 26.24 59.673 26.12 64.224-.01.594-15.1-13.847-33.26-32.326-101.86-101.979-206.45-189.969-329.49-276.643l-47.7-33.68-2.1-10.944c-1.39-7.758-1.21-15.08.42-24.742 2.12-13.213 5.13-22.444 24.87-74.222 9.75-25.297 21.2-62.631 43.83-142.85l15.46-54.658.64-88.102c.43-48.503.9-106.313 1.47-128.674.89-43.343-.85-60.417-13.59-128.66-8.88-48.54-11.59-58.905-34.3-132.944-12.27-39.517-25.36-86.184-29.28-103.709-3.72-17.52-8.92-39.037-11.67-47.819-2.55-8.777-13.5-46.083-24.46-82.796-23.74-80.005-27.19-92.567-43.41-164.263-6.95-30.671-12.85-56.166-13.43-56.577-.77-1.009-2.86 3.294-21.15 45.009-19.35 44.065-27.21 64.856-39.28 103.561-12.06 38.11-24.05 88.896-29.72 124.99-9.21 58.776-12.56 206.808-6.16 275.088 1.72 18.459 4.69 49.82 6.37 69.467 4.35 47.436 7.73 70.492 13.02 88.447 2.37 8.179 11.85 48.616 21.12 89.642 9.07 41.021 18.03 78.475 19.5 83.066 1.47 4.79 2.56 8.579 2.16 8.569-.19-.005-3.83-5.047-7.84-11.089-12.39-19.323-35.64-40.306-55.78-50.914-35.6-18.722-65.86-20.873-95.934-7.178-25.258 11.441-44.122 36.508-50.636 66.838-4.035 18.512-4.3 29-1.423 48.479 8.852 57.45 49.951 109.182 101.973 128.517 26.51 9.778 61.41 8.681 79.93-2.732 2.62-1.716 5.4-2.042 6.37-1.028 1.35 1.619 75.37 122.894 85.24 139.975 4.37 7.438 3.98 7.23-27.04-12.168-43.9-27.248-101.9-60.793-143.94-83.44-34.997-18.706-35.774-19.32-39.509-28.325-9.144-22.409-32.441-49.334-57.375-66.4-30.196-20.565-62.434-30.885-98.675-31.801-12.476-.316-26.76.314-31.741 1.376-4.783 1.067-9.155 1.55-9.541 1.145-.584-.411 88.708-153.994 94.473-162.561 1.436-1.944 3.411-1.696 10.085.849 11.188 4.243 38.72 4.741 54.465 1.179 38.071-8.74 75.528-40.071 96.358-80.533 13.96-26.974 17.47-40.152 18.39-68.842.68-19.19.07-26.334-3.21-37.704-13.28-46.672-54.38-74.839-100.312-68.872-55.071 7.123-106 54.152-123.165 113.915-2.384 8.059-4.474 12.362-4.404 9.592-.128-2.776-.03-38.02-.005-78.217.382-77.812.678-73.844-11.301-140.878-4.85-27.647-7.743-38.612-24.582-93.69-9.156-29.736-19.697-67.428-23.639-83.963-3.743-16.53-14.457-55.216-23.594-85.744-19.01-63.252-28.957-100.929-39.974-151.108-4.07-19.31-8.032-35.054-8.626-35.069-1.584-.04-32.567 73.235-40.053 95.026-13.051 38.086-23.404 79.21-30.208 121.017-3.075 19.724-4.367 39.493-5.645 97.876-1.751 69.262-1.53 76.198 3.111 127.8 5.598 60.735 9.18 91.518 11.955 99.311.921 2.796 8.077 33.273 15.925 67.729s16.092 68.92 18.67 76.708c2.384 7.585 12.198 42.684 21.814 77.778 15.956 58.621 19.098 67.611 37.079 108.857 17.229 39.643 20.009 47.238 21.991 62.932 1.141 9.731 2.119 18.073 1.718 18.261-.406.386-101.081-109.089-126.125-137.444l-11.756-13.169 6.167-8.755c11.109-16.154 15.455-31.292 15.902-56.825.282-19.002-.548-25.36-4.569-38.729-22.355-72.049-93.369-124.14-157.783-115.868-73.356 9.235-102.98 91.455-60.505 167.181 15.356 27.517 46.326 56.616 74.326 69.997 36.034 16.951 79.642 16.469 107.441-1.442l10.474-6.666 52.746 61.333c28.876 33.601 53.118 62.332 54.073 63.742.762 1.208-5.931-.546-14.956-4.14-159.291-64.026-343.655-123.934-491.968-159.762-14.575-3.536-26.56-7.602-28.099-9.423-4.029-5.25-2.089-19.26 5.753-39.458C199.896 54.56 216.53.13 221.225-20.94c2.21-9.053 2.635-25.874 2.222-72.22-.581-71.103-2.587-85.807-21.399-149.054-6.397-21.35-13.475-47.073-16.002-56.84-2.522-9.964-8.695-32.298-13.998-49.858-9.864-33.12-14.014-49.265-20.576-79.727-2.131-9.757-4.526-16.946-5.145-15.972-3.714 5.847-19.781 45.638-25.167 62.73-14.206 44.591-16.126 57.809-17.656 118.364-1.156 45.713-.754 61.168 2.13 88.172 3.858 35.542 17.516 98.857 32.44 151.313 4.921 16.956 10.545 37.494 12.717 45.667 2.171 8.174 9.226 26.966 15.782 41.983 8.244 18.822 12.103 30.8 12.898 38.543.434 6.348.304 11.493-.687 11.468-.99-.025-32.719-6.966-70.552-15.447C38.283 82.355-39.597 66.723-100.763 56.266-171.99 43.97-309.206 23.868-320.505 23.979c-5.753.25-.822 1.167 63.716 11.511C-151.99 52.397-20.697 79.478 88.198 106.785c36.823 9.247 69.319 17.197 72.275 17.866 3.158.476 5.505 1.723 5.485 2.515-.075 2.968-14.76 3.785-48.219 2.543-35.438-1.291-105.704 3.269-156.998 9.893-13.126 1.846-29.425 3.811-35.98 4.437-17.873 1.528-83.915 19.265-115.718 30.936-51.005 18.71-79.709 33.232-112.412 56.959-14.331 10.331-59.717 49.777-59.772 51.954-.02.792 13.081-.065 29.385-2.227m732.328-27.824c11.234-21.102 19.822-31.578 29.453-36.285 3.412-1.696 6.843-4.183 7.868-5.543 2.893-4.68 145.784 49.625 251.635 95.469 20.385 8.832 37.435 16.391 37.821 16.797.381.604-4.006 1.681-9.977 2.718-22.687 3.783-191.815 30.992-193.003 30.962-.594-.015-3.811-6.036-7.185-13.647-9.016-19.633-29.31-39.948-50.631-50.982-20.152-10.212-36.48-14.981-59.021-16.937-9.491-.834-17.387-2.024-17.377-2.42s4.597-9.388 10.417-20.132m114.373 171.206c6.88-13.489 12.015-36.329 10.686-46.462-.499-3.775-.216-7.134.591-7.708 2.412-1.325 209.365-27.578 211.524-26.731.985.222-3.517 5.851-10.212 12.018l-11.787 11.584-46.934 14.457c-48.335 15.015-52.94 16.879-146.239 62.441l-32.908 16.197 9.618-12.034c5.314-6.4 12.327-17.312 15.661-23.762m265.046-168.545c3.839-10.794 9.374-25.902 12.336-33.351 6.341-15.682 18.016-54.198 32.853-108.08 5.675-20.648 11.081-38.53 11.913-40.094 1.04-1.954 1.98.05 2.83 5.616 2.511 18.281 19.263 45.437 35.598 57.731l5.252 3.895-52.859 84.207c-29.312 46.388-53.641 83.792-54.408 82.782-5.207-5.676-2.468-27.784 6.485-52.706M950.36 540.06c6.986-2.002 30.341-24.382 36.755-35.11 3.512-5.654 6.999-10.318 7.989-10.293.792.02 42.156 17.897 91.746 39.546 59.18 26.05 94.43 42.585 103 48.544 7.21 4.935 12.45 9.225 11.45 9.596-.99.173-47.45 3.751-103.05 7.89-55.78 3.937-103.23 7.489-105.815 7.82-3.97.296-5.119-1.317-7.874-9.902-4.952-15.768-15.038-32.261-27.229-43.856-5.999-5.696-11.018-10.971-10.998-11.763-.178-.797 1.634-1.939 4.026-2.472m50.78-72.379c1.23-1.751 9.84 2.427 30.73 14.836 32.42 19.037 57.78 34.925 54.24 33.846-1.18-.426-21.2-8.259-44.54-17.562-42.378-16.912-42.378-16.912-42.228-22.849.085-3.364.968-6.906 1.798-8.271m133.55-93.653c14.87-16.059 24.82-41.352 25.4-64.109.16-6.531 1.07-11.062 1.83-9.855.97 1.015 7.53 23.754 14.77 50.67 12.13 45.454 14.91 53.247 39.81 110.906 23.02 53.254 26.92 63.848 27.83 74.96.41 7.139 1.35 16.866 1.82 21.828 1 7.55.58 8.529-1.54 6.297-3.68-3.657-117.96-178.227-117.91-180.206-.18-.994 3.51-5.654 7.99-10.491m267.86 574.488c40.03 7.744 79.53-2.544 103.53-27.086l10.79-11.212 78.71 53.474c73.64 49.978 89.4 61.668 89.3 65.618-.05 1.98-114.13-.7-198.25-4.81l-60.76-2.72-2.28-11.94c-2.79-15.121-11.79-35.15-22.9-50.48-4.78-6.656-8.6-12.297-8.41-12.292.21-.193 4.75.516 10.27 1.448m21.48 98.954 1.62-9.26 8.12.2c17.03.43 255.02 16.35 255.6 16.96.39.4-8.2 2.96-19.17 5.65l-19.94 5.04-63.73-3.19c-64.91-3.42-69.47-3.34-125.69 1.97-42.11 4.08-41.32 4.3-39.56-2.59.67-2.95 2.02-9.45 2.75-14.78m102.93-159.967c1.72-5.303 3.29-12.59 3.38-16.35.09-3.562 1.16-6.505 2.15-6.48 2.57.065 86.78 86.945 95.02 98.044 4.98 6.463-1.07 3.141-49.06-26.982-30.03-19.175-54.59-35.637-54.76-36.632.03-1.187 1.55-6.297 3.27-11.6"/></g><defs><clipPath id="clip0_1_13"><path fill="#fff" d="M0 0h2104.25v2535.7H0Z" transform="rotate(-88.552 507.153 911.627)"/></clipPath></defs></svg>