<svg xmlns="http://www.w3.org/2000/svg" width="536" height="688" fill="none" viewBox="0 0 536 688"><path fill="#66a37b" fill-opacity=".2" d="M9.069 4.113c0 7.729 2.582 20.932 6.24 31.72 6.455 19.054 17.267 36.175 33.028 52.33 38.515 39.395 99.676 62.903 185.312 71.223 9.306.858 28.295 2.093 33.19 2.093 3.819 0 5.486.322 9.306 1.664 19.58 6.87 39.644 21.039 52.769 37.248l3.927 4.83-2.528.537c-2.259.483-2.959.376-6.509-.966-18.074-6.977-44.862-9.232-64.711-5.474-3.497.644-3.658.644-7.262-.913-11.243-4.723-31.415-10.895-48.843-14.921-4.465-1.073-15.008-2.952-23.668-4.293-21.84-3.382-50.887-3.596-72.35-.537-38.569 5.474-72.834 21.469-101.075 47.177l-5.056 4.616 4.518 4.187c24.69 23.025 55.406 37.463 87.52 41.166 7.476.859 26.196.698 33.35-.215 41.743-5.635 81.925-26.997 123.076-65.587l7.046-6.601 5.057-.913c6.885-1.181 25.174-1.61 32.92-.751 7.477.805 16.783 2.683 23.722 4.884l5.272 1.61-4.734 3.113c-16.406 10.573-38.515 35.262-53.092 59.254-7.101 11.593-8.876 16.262-14.954 38.214-4.357 15.887-3.389 14.17-10.059 17.766-4.035 2.254-6.832 4.186-9.414 6.709-3.281 3.22-3.927 3.649-6.885 4.186-4.035.805-14.04 4.186-18.989 6.441-4.626 2.093-12.856 6.923-17.805 10.412-36.955 26.138-64.066 75.731-72.619 132.677-2.259 15.243-2.689 21.254-2.635 38.644.053 25.064 2.528 43.527 8.606 64.352 20.226 68.861 69.338 107.29 122.592 95.912 30.284-6.494 59.924-30.378 80.633-64.997 3.712-6.172 10.866-19.912 12.157-23.347l.538-1.449 3.174 2.952c19.795 18.248 42.495 29.358 67.831 33.115 5.864.859 21.356.752 27.703-.214 44.809-6.763 79.235-40.791 92.522-91.296 1.345-5.099 2.797-12.828 3.819-20.127 1.291-9.339 1.291-30.754 0-40.791-5.003-39.019-21.086-73.799-45.992-99.4-11.404-11.754-23.023-20.61-36.094-27.48-27.219-14.223-57.127-16.961-83.915-7.729-6.025 2.04-6.401 2.093-14.255 2.254-5.594.054-8.499-.107-9.467-.59-3.927-1.825-9.521-15.028-13.072-30.754-.968-4.187-2.259-18.946-2.743-30.861-.753-18.517 1.506-26.568 13.663-48.735 6.885-12.505 7.585-15.242 5.325-21.146-.806-2.308-1.99-3.972-4.357-6.28-1.775-1.717-4.626-4.991-6.293-7.246-13.394-18.033-34.212-33.598-55.137-41.327-3.012-1.127-3.389-1.449-5.325-4.777-8.284-14.223-22.539-32.901-37.439-49.217-39.268-42.83-88.918-74.711-142.333-91.242C69.208 7.494 43.119 2.878 14.878 1.268L9.068.946Zm309.786 236.371c-3.658 21.522-3.873 51.471-.538 71.276.538 3.274 4.626 15.028 9.629 27.909 1.775 4.563 3.604 9.447 4.088 10.842l.807 2.523-2.905 6.011c-1.56 3.328-3.066 6.924-3.227 7.943-.269 1.342-1.345 3.006-3.766 5.529l-3.388 3.649-2.475-3.113c-4.142-4.991-13.179-13.954-17.805-17.55-6.67-5.153-10.758-7.729-17.913-11.325-6.132-3.059-6.724-3.542-9.198-6.763-3.227-4.24-7.423-7.997-11.189-9.929-1.56-.805-3.12-2.093-3.496-2.791-2.313-4.294 1.291-19.644 7.854-33.599 2.474-5.259 10.435-18.087 16.836-27.265 6.402-9.07 10.705-13.686 16.299-17.551 4.68-3.166 19.527-11.217 20.71-11.271.377 0 .269 1.933-.323 5.475"/><path fill="#101706" fill-opacity=".19" d="M12.106 4.167c0 7.728 2.582 20.932 6.24 31.72C24.8 54.94 35.613 72.06 51.374 88.217c38.515 39.395 99.676 62.903 185.312 71.222 9.306.859 28.295 2.094 33.19 2.094 3.819 0 5.487.322 9.306 1.663 19.58 6.87 39.644 21.04 52.769 37.249l3.927 4.83-2.528.537c-2.259.483-2.959.376-6.509-.966-18.074-6.978-44.862-9.232-64.711-5.475-3.497.644-3.658.644-7.262-.912-11.243-4.723-31.414-10.896-48.843-14.921-4.465-1.073-15.008-2.952-23.668-4.294-21.84-3.381-50.887-3.596-72.35-.536-38.569 5.474-72.834 21.468-101.075 47.177l-5.056 4.616 4.518 4.186c24.69 23.026 55.406 37.463 87.52 41.167 7.476.858 26.196.697 33.35-.215 41.743-5.636 81.925-26.997 123.076-65.587l7.046-6.602 5.057-.912c6.885-1.181 25.174-1.61 32.92-.752 7.477.805 16.783 2.684 23.722 4.885l5.272 1.61-4.734 3.113c-16.406 10.573-38.514 35.262-53.092 59.253-7.101 11.594-8.876 16.263-14.954 38.215-4.357 15.887-3.389 14.169-10.059 17.765-4.035 2.254-6.832 4.187-9.414 6.709-3.281 3.221-3.926 3.65-6.885 4.187-4.034.805-14.04 4.186-18.989 6.44-4.626 2.093-12.856 6.924-17.805 10.413-36.955 26.138-64.066 75.731-72.618 132.677-2.26 15.242-2.69 21.254-2.636 38.643.054 25.065 2.528 43.528 8.606 64.353 20.226 68.861 69.338 107.29 122.592 95.912 30.285-6.495 59.924-30.379 80.634-64.997 3.711-6.172 10.866-19.912 12.156-23.347l.538-1.45 3.174 2.952c19.795 18.249 42.496 29.359 67.831 33.116 5.864.859 21.356.751 27.703-.215 44.809-6.762 79.235-40.79 92.522-91.296 1.345-5.098 2.797-12.827 3.819-20.127 1.291-9.338 1.291-30.754 0-40.79-5.002-39.02-21.086-73.799-45.992-99.401-11.404-11.754-23.023-20.61-36.094-27.48-27.219-14.223-57.127-16.96-83.915-7.728-6.025 2.039-6.401 2.093-14.255 2.254-5.594.054-8.499-.107-9.467-.59-3.927-1.825-9.521-15.029-13.072-30.754-.968-4.187-2.259-18.947-2.743-30.862-.753-18.517 1.506-26.567 13.663-48.734 6.885-12.505 7.585-15.243 5.326-21.147-.807-2.307-1.991-3.971-4.358-6.279-1.775-1.718-4.626-4.992-6.293-7.246-13.394-18.034-34.212-33.598-55.137-41.327-3.012-1.127-3.389-1.449-5.325-4.777-8.284-14.223-22.539-32.901-37.439-49.217-39.268-42.83-88.918-74.711-142.333-91.242C72.245 7.547 46.156 2.932 17.915 1.322L12.105 1Zm309.786 236.371c-3.657 21.522-3.873 51.471-.538 71.276.538 3.274 4.627 15.028 9.629 27.909 1.775 4.562 3.604 9.446 4.088 10.842l.807 2.522-2.905 6.012c-1.56 3.327-3.066 6.923-3.227 7.943-.269 1.342-1.345 3.006-3.765 5.528l-3.389 3.65-2.475-3.113c-4.142-4.991-13.179-13.955-17.805-17.551-6.67-5.152-10.758-7.728-17.912-11.324-6.133-3.06-6.724-3.543-9.199-6.763-3.227-4.24-7.423-7.997-11.189-9.929-1.559-.805-3.119-2.094-3.496-2.791-2.313-4.294 1.291-19.644 7.854-33.599 2.474-5.26 10.435-18.087 16.836-27.265 6.402-9.071 10.705-13.687 16.299-17.551 4.68-3.167 19.527-11.217 20.71-11.271.377 0 .269 1.932-.323 5.475"/></svg>