<svg width="1920" height="1200" viewBox="0 0 1920 1200" fill="none" xmlns="http://www.w3.org/2000/svg">
<g clip-path="url(#clip0_1_13)">
<path d="M-333.756 281.661C-317.655 279.691 -292.429 277.359 -277.739 276.344C-263.055 275.527 -239.428 273.748 -225.129 272.526C-211.028 271.298 -182.842 269.436 -162.597 268.166C-120.325 265.67 -72.8036 259.347 -51.2503 253.357C-43.0656 250.99 -15.6742 241.385 9.7318 231.928L55.7407 214.874L90.0475 190.395C108.815 177.008 132.05 159.378 141.573 151.104C160.208 135.139 167.64 131.169 178.928 131.454C192.989 131.81 413.439 198.768 427.107 206.836C429.25 208.276 426.809 210.789 415.107 219.008C402.396 227.993 395.181 231.177 367.815 239.792C343.043 247.681 322.212 256.461 278.682 277.341C228.538 301.221 163.285 334.819 139.343 349.065C119.828 360.651 62.6526 403.957 35.0891 428.211C-12.3325 469.784 -36.6042 497.091 -64.049 540.159C-77.2537 560.815 -106.846 618.284 -105.738 621.48C-105.362 622.282 -93.5223 616.442 -79.0584 608.689C-64.7876 600.733 -26.2591 581.708 6.23342 566.291C38.7259 550.875 78.0416 532.068 93.4856 524.735C108.935 517.205 131.796 506.496 144.225 500.87C169.478 489.627 213.732 463.617 234.133 448.292L247.266 438.327L250.087 444.339C254.802 453.765 274.141 472.669 287.794 481.331C313.941 497.437 351.378 505.908 384.149 502.974C393.878 502.23 403.424 500.887 405.023 500.334C406.821 499.785 408.212 499.622 408.197 500.216C408.162 501.601 355.129 529.963 353.149 529.913C346.812 529.753 239.409 608.027 204.16 638.423C101.043 727.498 51.2935 790.596 0.870007 896.053C-7.71995 914.45 -14.6504 929.918 -14.4722 930.714C-14.0964 931.516 4.16533 922.473 26.2697 910.358C48.3741 898.244 99.1381 873.389 139.038 854.992C178.938 836.595 220.061 816.842 230.509 811.166C253.015 798.864 289.315 781.762 333.398 762.48C391.505 737.217 456.527 697.079 491.222 665.085C504.003 653.329 536.232 624.837 562.577 601.741C589.115 578.848 613.267 556.29 616.551 551.819C633.385 528.681 688.894 441.57 700.945 419.499L708.638 405.238L709.649 420.115C710.773 438.361 718.342 460.334 729.591 477.846C738.366 491.335 756.496 511.001 767.59 519.004C774.01 523.721 775.915 526.739 772.35 526.649C767.795 526.534 744.834 541.201 732.879 551.591C716.661 566.033 706.181 580.817 699.384 598.863C694.92 610.829 694.211 615.366 694.562 632.8C694.681 651.615 695.22 653.807 702.544 669.833C717.017 700.892 749.073 726.256 788.599 738.344C808.268 744.188 857.391 745.034 878.726 739.831C922.996 728.871 957.08 705.376 974.936 673.155C983.862 657.143 986.885 647.318 987.854 632.492L988.531 621.42L1000.64 620.538C1024.86 618.972 1220.45 611.045 1222.21 611.684C1223.2 612.104 1215.71 618.054 1205.23 624.917C1186.89 637.127 1185.5 637.488 1135.6 651.474C1094.49 662.91 1077.9 668.629 1048.64 681.552C1028.8 690.358 997.139 704.211 978.501 712.452C959.665 720.689 940.834 728.727 936.438 730.201C932.046 731.476 906.768 743.708 880.277 756.899C853.78 770.289 820.872 786.486 807.037 792.869C778.56 806.209 775.337 808.305 709.819 852.391C652.966 890.755 601.792 931.838 552.458 978.511C506.175 1022.09 476.326 1058.37 441.249 1113.32C427.009 1135.73 384.558 1215.85 386.934 1215.91C387.33 1215.92 394.154 1212.53 402.388 1208.18C445.359 1185.9 507.719 1156.98 558.581 1136.09C590.018 1123.22 635.107 1103.37 658.974 1092.09C682.841 1080.82 724.518 1062.66 751.741 1051.86C829.619 1020.57 907.598 977.389 938.856 948.081C944.338 942.873 971.268 920.188 998.578 898.106C1025.89 875.827 1053.82 852.968 1060.9 847.009C1071.22 838.557 1081.07 825.539 1114.37 778.064C1156.94 716.765 1164.15 705.66 1183.45 671.297C1189.89 659.777 1198.96 645.947 1203.45 640.516C1211.63 630.624 1226.56 620.11 1234.93 618.341C1240.11 617.086 1265.22 634.949 1328.95 685.074L1366.85 714.744L1354.9 716.819C1309.51 725.176 1281.09 751.982 1274.09 793.785C1269.44 820.994 1278.91 854.104 1299.78 882.948C1305.13 890.608 1308.94 896.645 1308.15 896.625C1307.36 896.605 1300.06 895.034 1291.99 893.048C1270.33 887.748 1228.72 887.29 1205.63 891.657C1092.71 913.753 1038.87 1012.98 1096.49 1093.25C1100.7 1099.3 1104.33 1104.74 1104.31 1105.33C1104.3 1105.92 1092.32 1109.38 1077.76 1113.17C974.236 1139.86 917.889 1158.24 831.574 1194.08C783.311 1214.05 767.669 1221.37 735.295 1239.96C666.139 1279 598.222 1331.74 535.794 1394.72C514.247 1416.15 511.785 1419.46 516.959 1418.6C522.138 1417.54 580.799 1409.52 610.224 1405.71C649.393 1400.56 676.406 1398.07 737.344 1394.07C742.701 1393.81 762.352 1392.52 781.012 1391.21C820.908 1388.66 861.037 1384.72 872.786 1382.45C891.502 1378.96 939.359 1375.02 1000.47 1372.01C1056.22 1369.46 1079.48 1366.48 1145.6 1353.5C1199.76 1342.99 1221.12 1337.19 1249.17 1325.03C1263.19 1319.05 1308.62 1301.38 1350.43 1285.81C1392.24 1270.23 1431.46 1255.18 1437.68 1252.17C1458.94 1242.21 1586.99 1146.44 1624.52 1112.34C1663.05 1077.28 1681.78 1065.67 1703.23 1063.64L1712.96 1062.9L1733.11 1088.75C1779.93 1149.54 1818.56 1204.77 1858.96 1268.56C1867.72 1282.45 1875.78 1293.15 1876.98 1292.58C1878.38 1292.03 1885.58 1289.44 1893.38 1286.66C1904.18 1282.58 1910.43 1278.58 1920.98 1268.75C1928.69 1261.81 1934.79 1255.63 1934.81 1254.84C1934.86 1252.86 1904.88 1208.14 1879.62 1172.45C1851.69 1132.94 1816.4 1086.5 1786.59 1050.5C1773.71 1034.93 1760.83 1019.35 1757.95 1015.72L1752.57 1009.05L1767.07 976.146C1775.25 958.135 1792.3 918.962 1805.33 889.391C1864.42 754.847 1863.17 757.192 1868.31 757.718C1870.88 757.981 1879.77 758.997 1888.06 759.999C1927.19 764.552 1974.85 744.767 2009.63 709.41C2039.12 679.66 2060.57 638.223 2068.36 596.638C2072.47 575.158 2071.51 534.936 2066.62 516.793C2053.56 468.741 2024.06 436.312 1982.35 424.565C1910.34 404.131 1827.54 457.681 1793.19 546.514C1772.83 599.464 1774.91 658.328 1798.41 700.506C1807.14 715.974 1825.67 735.452 1839.14 743.515L1850.27 750.133L1843.37 764.414C1839.4 772.234 1813.88 825.648 1786.66 883.177C1759.25 940.701 1736.45 988.045 1736.04 988.431C1735.84 988.822 1733.69 987.579 1731.56 985.545C1725.56 979.849 1727.04 952.758 1735.1 915.933C1743.58 878.326 1743.83 876.55 1746.78 853.654C1748.04 843.191 1750.25 826.218 1751.69 816.155C1755.13 789.906 1758.68 759.501 1763.06 719.216C1766.7 685.249 1766.75 683.072 1763.35 660.808C1759.81 636.164 1755.18 607.731 1749.81 577.1C1743.56 542.091 1736.29 492.799 1734.56 474.736C1732.33 453.294 1729.5 439.757 1721.08 412.416C1700.39 345.161 1681.4 296.76 1654.41 243.208C1625.16 185.241 1605.8 143.762 1598.94 125.173C1592.08 106.584 1577.23 74.7238 1536.38 -10.4663C1506.82 -71.8069 1476.66 -141.083 1458.09 -190.265C1454.55 -199.265 1451.17 -206.677 1450.38 -206.697C1449.59 -206.717 1448.55 -204.763 1447.89 -202.404C1447.43 -199.841 1442.81 -181.543 1437.74 -161.473C1416.39 -77.261 1408.27 -22.4175 1406.38 52.1874C1404.9 110.763 1410.05 165.744 1426.01 263.572C1433.74 310.697 1434.63 314.68 1450.33 375.473L1463.31 426.295L1446.87 441.721C1433.06 454.837 1428.77 460.273 1420.84 475.716C1406.45 504.263 1403.57 516.269 1402.83 553.478C1402.13 581.182 1402.76 587.535 1406.88 604.669C1421.41 665.035 1460.33 716.91 1509.63 742.116C1531.14 753.155 1549.28 756.98 1576.05 756.27L1598.25 755.841L1617.4 798.107C1627.9 821.541 1639.77 845.999 1643.76 852.634C1649.66 862.288 1670 912.307 1669.88 916.858C1669.87 917.452 1654.78 903.011 1636.62 884.532C1534.76 782.553 1430.17 694.563 1307.13 607.889L1259.43 574.209L1257.33 563.265C1255.94 555.507 1256.12 548.185 1257.75 538.523C1259.87 525.31 1262.88 516.079 1282.62 464.301C1292.37 439.004 1303.82 401.67 1326.45 321.451L1341.91 266.793L1342.55 178.691C1342.98 130.188 1343.45 72.3784 1344.02 50.0168C1344.91 6.67357 1343.17 -10.4001 1330.43 -78.6422C1321.55 -127.183 1318.84 -137.548 1296.13 -211.587C1283.86 -251.104 1270.77 -297.771 1266.85 -315.296C1263.13 -332.816 1257.93 -354.333 1255.18 -363.115C1252.63 -371.892 1241.68 -409.198 1230.72 -445.911C1206.98 -525.916 1203.53 -538.478 1187.31 -610.174C1180.36 -640.845 1174.46 -666.34 1173.88 -666.751C1173.11 -667.76 1171.02 -663.457 1152.73 -621.742C1133.38 -577.677 1125.52 -556.886 1113.45 -518.181C1101.39 -480.071 1089.4 -429.285 1083.73 -393.191C1074.52 -334.415 1071.17 -186.383 1077.57 -118.103C1079.29 -99.644 1082.26 -68.2821 1083.94 -48.6358C1088.29 -1.19965 1091.67 21.8558 1096.96 39.8112C1099.33 47.9898 1108.81 88.427 1118.08 129.453C1127.15 170.474 1136.11 207.928 1137.58 212.519C1139.05 217.309 1140.14 221.098 1139.74 221.088C1139.55 221.083 1135.91 216.041 1131.9 209.999C1119.51 190.676 1096.26 169.693 1076.12 159.085C1040.52 140.363 1010.26 138.212 980.186 151.907C954.928 163.348 936.064 188.415 929.55 218.745C925.515 237.257 925.25 247.745 928.127 267.224C936.979 324.674 978.078 376.406 1030.1 395.741C1056.61 405.519 1091.51 404.422 1110.03 393.009C1112.65 391.293 1115.43 390.967 1116.4 391.981C1117.75 393.6 1191.77 514.875 1201.64 531.956C1206.01 539.394 1205.62 539.186 1174.6 519.788C1130.7 492.54 1072.7 458.995 1030.66 436.348C995.663 417.642 994.886 417.028 991.151 408.023C982.007 385.614 958.71 358.689 933.776 341.623C903.58 321.058 871.342 310.738 835.101 309.822C822.625 309.506 808.341 310.136 803.36 311.198C798.577 312.265 794.205 312.748 793.819 312.343C793.235 311.932 882.527 158.349 888.292 149.782C889.728 147.838 891.703 148.086 898.377 150.631C909.565 154.874 937.097 155.372 952.842 151.81C990.913 143.07 1028.37 111.739 1049.2 71.2768C1063.16 44.3032 1066.67 31.1246 1067.59 2.43535C1068.27 -16.755 1067.66 -23.8991 1064.38 -35.269C1051.1 -81.9409 1010 -110.108 964.068 -104.141C908.997 -97.0182 858.068 -49.9892 840.903 9.77415C838.519 17.8326 836.429 22.1361 836.499 19.3656C836.371 16.5901 836.469 -18.6545 836.494 -58.8514C836.876 -136.663 837.172 -132.695 825.193 -199.729C820.343 -227.376 817.45 -238.341 800.611 -293.419C791.455 -323.155 780.914 -360.847 776.972 -377.382C773.229 -393.912 762.515 -432.598 753.378 -463.126C734.368 -526.378 724.421 -564.055 713.404 -614.234C709.334 -633.544 705.372 -649.288 704.778 -649.303C703.194 -649.343 672.211 -576.068 664.725 -554.277C651.674 -516.191 641.321 -475.067 634.517 -433.26C631.442 -413.536 630.15 -393.767 628.872 -335.384C627.121 -266.122 627.342 -259.186 631.983 -207.584C637.581 -146.849 641.163 -116.066 643.938 -108.273C644.859 -105.477 652.015 -74.9998 659.863 -40.5444C667.711 -6.08895 675.955 28.3764 678.533 36.1642C680.917 43.7492 690.731 78.8484 700.347 113.942C716.303 172.563 719.445 181.553 737.426 222.799C754.655 262.442 757.435 270.037 759.417 285.731C760.558 295.462 761.536 303.804 761.135 303.992C760.729 304.378 660.054 194.903 635.01 166.548L623.254 153.379L629.421 144.624C640.53 128.47 644.876 113.332 645.323 87.7993C645.605 68.7969 644.775 62.4393 640.754 49.0704C618.399 -22.9789 547.385 -75.0705 482.971 -66.798C409.615 -57.5634 379.991 24.6571 422.466 100.383C437.822 127.9 468.792 156.999 496.792 170.38C532.826 187.331 576.434 186.849 604.233 168.938L614.707 162.272L667.453 223.605C696.329 257.206 720.571 285.937 721.526 287.347C722.288 288.555 715.595 286.801 706.57 283.207C547.279 219.181 362.915 159.273 214.602 123.445C200.027 119.909 188.042 115.843 186.503 114.022C182.474 108.772 184.414 94.7618 192.256 74.5642C199.896 54.5595 216.53 0.129215 221.225 -20.94C223.435 -29.9929 223.86 -46.8137 223.447 -93.1602C222.866 -164.263 220.86 -178.967 202.048 -242.214C195.651 -263.564 188.573 -289.287 186.046 -299.054C183.524 -309.018 177.351 -331.352 172.048 -348.912C162.184 -382.032 158.034 -398.177 151.472 -428.639C149.341 -438.396 146.946 -445.585 146.327 -444.611C142.613 -438.764 126.546 -398.973 121.16 -381.881C106.954 -337.29 105.034 -324.072 103.504 -263.517C102.348 -217.804 102.75 -202.349 105.634 -175.345C109.492 -139.803 123.15 -76.488 138.074 -24.0321C142.995 -7.07623 148.619 13.4617 150.791 21.6354C152.962 29.809 160.017 48.601 166.573 63.618C174.817 82.44 178.676 94.4186 179.471 102.161C179.905 108.509 179.775 113.654 178.784 113.629C177.794 113.604 146.065 106.663 108.232 98.1824C38.2833 82.3549 -39.5966 66.723 -100.763 56.2659C-171.99 43.9705 -309.206 23.8683 -320.505 23.9788C-326.258 24.2294 -321.327 25.1461 -256.789 35.4903C-151.99 52.3968 -20.6971 79.4778 88.1979 106.785C125.021 116.032 157.517 123.982 160.473 124.651C163.631 125.127 165.978 126.374 165.958 127.166C165.883 130.134 151.198 130.951 117.739 129.709C82.3006 128.418 12.0349 132.978 -39.259 139.602C-52.3846 141.448 -68.6838 143.413 -75.2391 144.039C-93.1125 145.567 -159.154 163.304 -190.957 174.975C-241.962 193.685 -270.666 208.207 -303.369 231.934C-317.7 242.265 -363.086 281.711 -363.141 283.888C-363.161 284.68 -350.06 283.823 -333.756 281.661ZM398.572 253.837C409.806 232.735 418.394 222.259 428.025 217.552C431.437 215.856 434.868 213.369 435.893 212.009C438.786 207.329 581.677 261.634 687.528 307.478C707.913 316.31 724.963 323.869 725.349 324.275C725.73 324.879 721.343 325.956 715.372 326.993C692.685 330.776 523.557 357.985 522.369 357.955C521.775 357.94 518.558 351.919 515.184 344.308C506.168 324.675 485.874 304.36 464.553 293.326C444.401 283.114 428.073 278.345 405.532 276.389C396.041 275.555 388.145 274.365 388.155 273.969C388.165 273.574 392.752 264.581 398.572 253.837ZM512.945 425.043C519.825 411.554 524.96 388.714 523.631 378.581C523.132 374.806 523.415 371.447 524.222 370.873C526.634 369.548 733.587 343.295 735.746 344.142C736.731 344.364 732.229 349.993 725.534 356.16L713.747 367.744L666.813 382.201C618.478 397.216 613.873 399.08 520.574 444.642L487.666 460.839L497.284 448.805C502.598 442.405 509.611 431.493 512.945 425.043ZM777.991 256.498C781.83 245.704 787.365 230.596 790.327 223.147C796.668 207.465 808.343 168.949 823.18 115.067C828.855 94.4191 834.261 76.5361 835.093 74.973C836.133 73.0192 837.073 75.023 837.923 80.589C840.434 98.8701 857.186 126.026 873.521 138.32L878.773 142.215L825.914 226.422C796.602 272.81 772.273 310.214 771.506 309.204C766.299 303.528 769.038 281.42 777.991 256.498ZM950.36 540.06C957.346 538.058 980.701 515.678 987.115 504.95C990.627 499.296 994.114 494.632 995.104 494.657C995.896 494.677 1037.26 512.554 1086.85 534.203C1146.03 560.253 1181.28 576.788 1189.85 582.747C1197.06 587.682 1202.3 591.972 1201.3 592.343C1200.31 592.516 1153.85 596.094 1098.25 600.233C1042.47 604.17 995.02 607.722 992.435 608.053C988.465 608.349 987.316 606.736 984.561 598.151C979.609 582.383 969.523 565.89 957.332 554.295C951.333 548.599 946.314 543.324 946.334 542.532C946.156 541.735 947.968 540.593 950.36 540.06ZM1001.14 467.681C1002.37 465.93 1010.98 470.108 1031.87 482.517C1064.29 501.554 1089.65 517.442 1086.11 516.363C1084.93 515.937 1064.91 508.104 1041.57 498.801C999.192 481.889 999.192 481.889 999.342 475.952C999.427 472.588 1000.31 469.046 1001.14 467.681ZM1134.69 374.028C1149.56 357.969 1159.51 332.676 1160.09 309.919C1160.25 303.388 1161.16 298.857 1161.92 300.064C1162.89 301.079 1169.45 323.818 1176.69 350.734C1188.82 396.188 1191.6 403.981 1216.5 461.64C1239.52 514.894 1243.42 525.488 1244.33 536.6C1244.74 543.739 1245.68 553.466 1246.15 558.428C1247.15 565.978 1246.73 566.957 1244.61 564.725C1240.93 561.068 1126.65 386.498 1126.7 384.519C1126.52 383.525 1130.21 378.865 1134.69 374.028ZM1402.55 948.516C1442.58 956.26 1482.08 945.972 1506.08 921.43L1516.87 910.218L1595.58 963.692C1669.22 1013.67 1684.98 1025.36 1684.88 1029.31C1684.83 1031.29 1570.75 1028.61 1486.63 1024.5L1425.87 1021.78L1423.59 1009.84C1420.8 994.719 1411.8 974.69 1400.69 959.36C1395.91 952.704 1392.09 947.063 1392.28 947.068C1392.49 946.875 1397.03 947.584 1402.55 948.516ZM1424.03 1047.47L1425.65 1038.21L1433.77 1038.41C1450.8 1038.84 1688.79 1054.76 1689.37 1055.37C1689.76 1055.77 1681.17 1058.33 1670.2 1061.02L1650.26 1066.06L1586.53 1062.87C1521.62 1059.45 1517.06 1059.53 1460.84 1064.84C1418.73 1068.92 1419.52 1069.14 1421.28 1062.25C1421.95 1059.3 1423.3 1052.8 1424.03 1047.47ZM1526.96 887.503C1528.68 882.2 1530.25 874.913 1530.34 871.153C1530.43 867.591 1531.5 864.648 1532.49 864.673C1535.06 864.738 1619.27 951.618 1627.51 962.717C1632.49 969.18 1626.44 965.858 1578.45 935.735C1548.42 916.56 1523.86 900.098 1523.69 899.103C1523.72 897.916 1525.24 892.806 1526.96 887.503Z" fill="black" fill-opacity="0.12"/>
</g>
<defs>
<clipPath id="clip0_1_13">
<rect width="2104.25" height="2535.7" fill="white" transform="translate(-417 1395.58) rotate(-88.5519)"/>
</clipPath>
</defs>
</svg>
